<mxfile host="app.diagrams.net" modified="2024-05-21T00:49:42.604Z" agent="Mozilla/5.0 (X11; Linux x86_64) AppleWebKit/537.36 (KHTML, like Gecko) Chrome/113.0.0.0 Safari/537.36" etag="r3MrTe1XcCebmeJrV6eJ" version="24.4.3" type="google">
  <diagram name="Página-1" id="BCtcAmU2bA3uNek7h3JM">
    <mxGraphModel grid="1" page="1" gridSize="10" guides="1" tooltips="1" connect="1" arrows="1" fold="1" pageScale="1" pageWidth="827" pageHeight="1169" math="0" shadow="0">
      <root>
        <mxCell id="0" />
        <mxCell id="1" parent="0" />
        <mxCell id="BI4W_taBGwi8xwzdrU5G-11" value="&lt;b&gt;Processo Judicial = {&lt;u&gt;Código&lt;/u&gt;, Indivíduo, Data_Abertura, Data_Término, Procedência}&lt;br&gt;&lt;/b&gt;" style="text;html=1;strokeColor=none;fillColor=none;align=center;verticalAlign=middle;whiteSpace=wrap;rounded=0;" vertex="1" parent="1">
          <mxGeometry x="1000" y="30" width="490" height="10" as="geometry" />
        </mxCell>
        <mxCell id="BI4W_taBGwi8xwzdrU5G-12" value="&lt;font style=&quot;font-size: 12px;&quot;&gt;&lt;b&gt;Indivíduo = {&lt;u&gt;CPF&lt;/u&gt;, RG, Nome, Data_Nasc, Nacionalidade, Telefone, Tipo}&lt;/b&gt;&lt;/font&gt;" style="text;html=1;strokeColor=none;fillColor=none;align=center;verticalAlign=middle;whiteSpace=wrap;rounded=0;" vertex="1" parent="1">
          <mxGeometry x="1000" y="70" width="410" height="10" as="geometry" />
        </mxCell>
        <mxCell id="BI4W_taBGwi8xwzdrU5G-15" value="&amp;nbsp;Participante da Equipe de Apoio = {&lt;u style=&quot;&quot;&gt;Indivíduo&lt;/u&gt;&lt;span style=&quot;background-color: initial;&quot;&gt;}&lt;/span&gt;" style="text;html=1;strokeColor=none;fillColor=none;align=left;verticalAlign=middle;whiteSpace=wrap;rounded=0;fontStyle=1" vertex="1" parent="1">
          <mxGeometry x="1000" y="110" width="270" height="10" as="geometry" />
        </mxCell>
        <mxCell id="BI4W_taBGwi8xwzdrU5G-16" value="" style="endArrow=classic;html=1;rounded=0;edgeStyle=orthogonalEdgeStyle;" edge="1" parent="1">
          <mxGeometry width="50" height="50" relative="1" as="geometry">
            <mxPoint x="1231" y="110" as="sourcePoint" />
            <mxPoint x="1080" y="80" as="targetPoint" />
            <Array as="points">
              <mxPoint x="1231" y="100" />
              <mxPoint x="1080" y="100" />
              <mxPoint x="1080" y="80" />
            </Array>
          </mxGeometry>
        </mxCell>
        <mxCell id="buYJWm52dYUx8iEdCHAn-44" style="edgeStyle=orthogonalEdgeStyle;rounded=0;orthogonalLoop=1;jettySize=auto;html=1;entryX=0.292;entryY=-0.072;entryDx=0;entryDy=0;entryPerimeter=0;exitX=0.558;exitY=1.267;exitDx=0;exitDy=0;exitPerimeter=0;" edge="1" parent="1" source="BI4W_taBGwi8xwzdrU5G-17" target="buYJWm52dYUx8iEdCHAn-5">
          <mxGeometry relative="1" as="geometry">
            <mxPoint x="1110" y="530" as="targetPoint" />
            <mxPoint x="1147" y="210" as="sourcePoint" />
            <Array as="points">
              <mxPoint x="1150" y="210" />
              <mxPoint x="1150" y="240" />
              <mxPoint x="1270" y="240" />
              <mxPoint x="1270" y="530" />
              <mxPoint x="1122" y="530" />
              <mxPoint x="1122" y="549" />
            </Array>
          </mxGeometry>
        </mxCell>
        <mxCell id="BI4W_taBGwi8xwzdrU5G-17" value="&lt;b&gt;&amp;nbsp;Equipe de Apoio = {Candidatura&lt;u&gt;, Nome}&lt;/u&gt;&lt;/b&gt;" style="text;html=1;strokeColor=none;fillColor=none;align=left;verticalAlign=middle;whiteSpace=wrap;rounded=0;" vertex="1" parent="1">
          <mxGeometry x="999" y="193" width="271" height="10" as="geometry" />
        </mxCell>
        <mxCell id="BI4W_taBGwi8xwzdrU5G-18" value="" style="endArrow=classic;html=1;rounded=0;edgeStyle=orthogonalEdgeStyle;entryX=0.781;entryY=0.167;entryDx=0;entryDy=0;entryPerimeter=0;" edge="1" parent="1" target="BI4W_taBGwi8xwzdrU5G-17">
          <mxGeometry width="50" height="50" relative="1" as="geometry">
            <mxPoint x="1300" y="160" as="sourcePoint" />
            <mxPoint x="1210" y="190" as="targetPoint" />
            <Array as="points">
              <mxPoint x="1300" y="170" />
              <mxPoint x="1211" y="170" />
            </Array>
          </mxGeometry>
        </mxCell>
        <mxCell id="jVKLtPgzEHOXS91-g60B-19" value="" style="edgeStyle=orthogonalEdgeStyle;rounded=0;orthogonalLoop=1;jettySize=auto;html=1;entryX=0.398;entryY=-0.155;entryDx=0;entryDy=0;entryPerimeter=0;" edge="1" parent="1" target="BI4W_taBGwi8xwzdrU5G-26">
          <mxGeometry relative="1" as="geometry">
            <mxPoint x="1160" y="320" as="sourcePoint" />
            <Array as="points">
              <mxPoint x="1160" y="330" />
              <mxPoint x="1099" y="330" />
            </Array>
          </mxGeometry>
        </mxCell>
        <mxCell id="BI4W_taBGwi8xwzdrU5G-22" value="&lt;b&gt;Candidato = {&lt;u&gt;Indivíduo,&lt;/u&gt; Partido*}&lt;/b&gt;" style="text;html=1;strokeColor=none;fillColor=none;align=center;verticalAlign=middle;whiteSpace=wrap;rounded=0;" vertex="1" parent="1">
          <mxGeometry x="1001.5" y="310" width="191" height="5.5" as="geometry" />
        </mxCell>
        <mxCell id="BI4W_taBGwi8xwzdrU5G-24" value="" style="shape=link;html=1;rounded=0;width=2;" edge="1" parent="1">
          <mxGeometry relative="1" as="geometry">
            <mxPoint x="1140" y="320" as="sourcePoint" />
            <mxPoint x="1180" y="320" as="targetPoint" />
            <Array as="points" />
          </mxGeometry>
        </mxCell>
        <mxCell id="BI4W_taBGwi8xwzdrU5G-25" value="" style="resizable=0;html=1;whiteSpace=wrap;align=right;verticalAlign=bottom;" connectable="0" vertex="1" parent="BI4W_taBGwi8xwzdrU5G-24">
          <mxGeometry x="1" relative="1" as="geometry" />
        </mxCell>
        <mxCell id="BI4W_taBGwi8xwzdrU5G-26" value="&lt;b&gt;Partido = {&lt;u&gt;Código&lt;/u&gt;, Nome, Sigla, Programa}&lt;/b&gt;" style="text;html=1;strokeColor=none;fillColor=none;align=center;verticalAlign=middle;whiteSpace=wrap;rounded=0;" vertex="1" parent="1">
          <mxGeometry x="999" y="350" width="251" height="10" as="geometry" />
        </mxCell>
        <mxCell id="BI4W_taBGwi8xwzdrU5G-27" value="&lt;b&gt;Programa_de_Partido = {&lt;u&gt;Código,&amp;nbsp;&lt;/u&gt;&lt;/b&gt;&lt;b style=&quot;background-color: initial;&quot;&gt;Programa}&lt;/b&gt;" style="text;html=1;strokeColor=none;fillColor=none;align=center;verticalAlign=middle;whiteSpace=wrap;rounded=0;" vertex="1" parent="1">
          <mxGeometry x="999" y="390" width="261" height="10" as="geometry" />
        </mxCell>
        <mxCell id="BI4W_taBGwi8xwzdrU5G-29" value="" style="endArrow=none;html=1;rounded=0;startArrow=classic;startFill=1;endFill=0;edgeStyle=orthogonalEdgeStyle;entryX=0.837;entryY=1.083;entryDx=0;entryDy=0;entryPerimeter=0;" edge="1" parent="1">
          <mxGeometry width="50" height="50" relative="1" as="geometry">
            <mxPoint x="1170" y="390" as="sourcePoint" />
            <mxPoint x="1210.002" y="360.00000000000006" as="targetPoint" />
            <Array as="points">
              <mxPoint x="1170" y="390" />
              <mxPoint x="1170" y="369" />
              <mxPoint x="1210" y="369" />
            </Array>
          </mxGeometry>
        </mxCell>
        <mxCell id="BI4W_taBGwi8xwzdrU5G-33" value="&lt;b&gt;Empresa= {&lt;u&gt;CNPJ&lt;/u&gt;&lt;u style=&quot;&quot;&gt;,&lt;/u&gt; Nome}&lt;/b&gt;" style="text;html=1;strokeColor=none;fillColor=none;align=center;verticalAlign=middle;whiteSpace=wrap;rounded=0;" vertex="1" parent="1">
          <mxGeometry x="998.5" y="470" width="150" height="10" as="geometry" />
        </mxCell>
        <mxCell id="BI4W_taBGwi8xwzdrU5G-36" value="&lt;b&gt;Pleito= {&lt;u&gt;Código&lt;/u&gt;&amp;nbsp;&lt;/b&gt;&lt;b&gt;,&lt;/b&gt;&lt;b&gt;&amp;nbsp;Quantidade_Votos}&lt;/b&gt;" style="text;html=1;strokeColor=none;fillColor=none;align=center;verticalAlign=middle;whiteSpace=wrap;rounded=0;" vertex="1" parent="1">
          <mxGeometry x="1000.5" y="630" width="219.5" height="10" as="geometry" />
        </mxCell>
        <mxCell id="jVKLtPgzEHOXS91-g60B-17" value="" style="edgeStyle=orthogonalEdgeStyle;rounded=0;orthogonalLoop=1;jettySize=auto;html=1;entryX=0.577;entryY=1.375;entryDx=0;entryDy=0;entryPerimeter=0;exitX=0.874;exitY=0.188;exitDx=0;exitDy=0;exitPerimeter=0;" edge="1" parent="1" source="BI4W_taBGwi8xwzdrU5G-39" target="BI4W_taBGwi8xwzdrU5G-33">
          <mxGeometry relative="1" as="geometry">
            <Array as="points">
              <mxPoint x="1202" y="500" />
              <mxPoint x="1085" y="500" />
            </Array>
          </mxGeometry>
        </mxCell>
        <mxCell id="jVKLtPgzEHOXS91-g60B-18" value="" style="edgeStyle=orthogonalEdgeStyle;rounded=0;orthogonalLoop=1;jettySize=auto;html=1;exitX=0.455;exitY=1.043;exitDx=0;exitDy=0;exitPerimeter=0;" edge="1" parent="1" source="BI4W_taBGwi8xwzdrU5G-39" target="buYJWm52dYUx8iEdCHAn-5">
          <mxGeometry relative="1" as="geometry">
            <mxPoint x="1106" y="530" as="targetPoint" />
            <Array as="points">
              <mxPoint x="1106" y="520" />
              <mxPoint x="1106" y="520" />
            </Array>
          </mxGeometry>
        </mxCell>
        <mxCell id="BI4W_taBGwi8xwzdrU5G-39" value="&lt;b&gt;Empresa_Doa= {&lt;u&gt;Candidatura, Empresa&lt;/u&gt;&lt;/b&gt;&lt;b&gt;}&lt;/b&gt;" style="text;html=1;strokeColor=none;fillColor=none;align=center;verticalAlign=middle;whiteSpace=wrap;rounded=0;" vertex="1" parent="1">
          <mxGeometry x="1000.5" y="510" width="231" height="10" as="geometry" />
        </mxCell>
        <mxCell id="BI4W_taBGwi8xwzdrU5G-57" value="&lt;b&gt;&amp;nbsp;Participa_Equipe = {&lt;u&gt; Candidatura, Participante, Equipe}&lt;/u&gt;&lt;/b&gt;" style="text;html=1;strokeColor=none;fillColor=none;align=left;verticalAlign=middle;whiteSpace=wrap;rounded=0;" vertex="1" parent="1">
          <mxGeometry x="1000" y="150" width="360" height="7" as="geometry" />
        </mxCell>
        <mxCell id="BI4W_taBGwi8xwzdrU5G-66" value="&lt;b&gt;&amp;nbsp;Doador = {&lt;u&gt;Indivíduo}&lt;/u&gt;&lt;/b&gt;" style="text;html=1;strokeColor=none;fillColor=none;align=left;verticalAlign=middle;whiteSpace=wrap;rounded=0;" vertex="1" parent="1">
          <mxGeometry x="1000" y="230" width="130" height="10" as="geometry" />
        </mxCell>
        <mxCell id="BI4W_taBGwi8xwzdrU5G-19" value="&lt;b&gt;Doação = {&lt;/b&gt;&lt;b&gt;&lt;u&gt;Doador, Candidatuta&lt;/u&gt;}&lt;/b&gt;" style="text;html=1;strokeColor=none;fillColor=none;align=center;verticalAlign=middle;whiteSpace=wrap;rounded=0;" vertex="1" parent="1">
          <mxGeometry x="1001.5" y="270" width="188.5" height="10" as="geometry" />
        </mxCell>
        <mxCell id="buYJWm52dYUx8iEdCHAn-3" value="&lt;div&gt;&lt;b&gt;Cargo = {&lt;u&gt;Código&lt;/u&gt;, Nome, Qtd_Eleitos, Cidade, Estado_Federação}&lt;br&gt;&lt;/b&gt;&lt;/div&gt;" style="text;html=1;strokeColor=none;fillColor=none;align=center;verticalAlign=middle;whiteSpace=wrap;rounded=0;" vertex="1" parent="1">
          <mxGeometry x="1000" y="590" width="380" height="10" as="geometry" />
        </mxCell>
        <mxCell id="SfR6QMhROPFXurMHcV54-2" style="edgeStyle=orthogonalEdgeStyle;rounded=0;orthogonalLoop=1;jettySize=auto;html=1;" edge="1" parent="1">
          <mxGeometry relative="1" as="geometry">
            <mxPoint x="1090" y="320" as="targetPoint" />
            <mxPoint x="1267" y="560" as="sourcePoint" />
            <Array as="points">
              <mxPoint x="1267" y="570" />
              <mxPoint x="990" y="570" />
              <mxPoint x="990" y="340" />
              <mxPoint x="1090" y="340" />
            </Array>
          </mxGeometry>
        </mxCell>
        <mxCell id="jVKLtPgzEHOXS91-g60B-11" value="" style="edgeStyle=orthogonalEdgeStyle;rounded=0;orthogonalLoop=1;jettySize=auto;html=1;" edge="1" parent="1" source="buYJWm52dYUx8iEdCHAn-5">
          <mxGeometry relative="1" as="geometry">
            <mxPoint x="1090" y="320" as="targetPoint" />
            <Array as="points">
              <mxPoint x="1180" y="570" />
              <mxPoint x="990" y="570" />
              <mxPoint x="990" y="340" />
              <mxPoint x="1090" y="340" />
            </Array>
          </mxGeometry>
        </mxCell>
        <mxCell id="buYJWm52dYUx8iEdCHAn-5" value="&lt;div&gt;&lt;b&gt;Candidatura = {&lt;u&gt;Código&lt;/u&gt;, Vice_Candidato, Candidato, Cargo, Ano, Pleito*}&lt;br&gt;&lt;/b&gt;&lt;/div&gt;" style="text;html=1;strokeColor=none;fillColor=none;align=center;verticalAlign=middle;whiteSpace=wrap;rounded=0;" vertex="1" parent="1">
          <mxGeometry x="1000.5" y="550" width="419.5" height="10" as="geometry" />
        </mxCell>
        <mxCell id="buYJWm52dYUx8iEdCHAn-6" value="" style="shape=link;html=1;rounded=0;width=-1.5384615384615383;entryX=0.871;entryY=0.983;entryDx=0;entryDy=0;entryPerimeter=0;" edge="1" parent="1">
          <mxGeometry relative="1" as="geometry">
            <mxPoint x="1240" y="560.17" as="sourcePoint" />
            <mxPoint x="1365.8845000000001" y="560" as="targetPoint" />
          </mxGeometry>
        </mxCell>
        <mxCell id="buYJWm52dYUx8iEdCHAn-7" value="" style="resizable=0;html=1;whiteSpace=wrap;align=right;verticalAlign=bottom;" connectable="0" vertex="1" parent="buYJWm52dYUx8iEdCHAn-6">
          <mxGeometry x="1" relative="1" as="geometry" />
        </mxCell>
        <mxCell id="jVKLtPgzEHOXS91-g60B-16" value="" style="edgeStyle=orthogonalEdgeStyle;rounded=0;orthogonalLoop=1;jettySize=auto;html=1;exitX=0.634;exitY=1.313;exitDx=0;exitDy=0;exitPerimeter=0;entryX=0.578;entryY=-0.329;entryDx=0;entryDy=0;entryPerimeter=0;" edge="1" parent="1" source="buYJWm52dYUx8iEdCHAn-23" target="BI4W_taBGwi8xwzdrU5G-33">
          <mxGeometry relative="1" as="geometry">
            <mxPoint x="1090" y="450" as="targetPoint" />
            <Array as="points">
              <mxPoint x="1151" y="450" />
              <mxPoint x="1085" y="450" />
            </Array>
          </mxGeometry>
        </mxCell>
        <mxCell id="buYJWm52dYUx8iEdCHAn-23" value="&lt;b&gt;Telefone_Empresa= {&lt;u&gt;Empresa, Telefone&lt;/u&gt;}&lt;/b&gt;" style="text;html=1;strokeColor=none;fillColor=none;align=center;verticalAlign=middle;whiteSpace=wrap;rounded=0;" vertex="1" parent="1">
          <mxGeometry x="1002" y="430" width="235" height="10" as="geometry" />
        </mxCell>
        <mxCell id="buYJWm52dYUx8iEdCHAn-35" style="edgeStyle=orthogonalEdgeStyle;rounded=0;orthogonalLoop=1;jettySize=auto;html=1;exitX=0.405;exitY=1.303;exitDx=0;exitDy=0;exitPerimeter=0;entryX=0.194;entryY=0.124;entryDx=0;entryDy=0;entryPerimeter=0;" edge="1" parent="1" source="BI4W_taBGwi8xwzdrU5G-11" target="BI4W_taBGwi8xwzdrU5G-12">
          <mxGeometry relative="1" as="geometry">
            <mxPoint x="1080" y="50" as="targetPoint" />
            <Array as="points">
              <mxPoint x="1199" y="50" />
              <mxPoint x="1080" y="50" />
            </Array>
          </mxGeometry>
        </mxCell>
        <mxCell id="buYJWm52dYUx8iEdCHAn-37" style="edgeStyle=orthogonalEdgeStyle;rounded=0;orthogonalLoop=1;jettySize=auto;html=1;entryX=0.86;entryY=1.233;entryDx=0;entryDy=0;entryPerimeter=0;exitX=0.645;exitY=0.054;exitDx=0;exitDy=0;exitPerimeter=0;" edge="1" parent="1" source="BI4W_taBGwi8xwzdrU5G-57" target="BI4W_taBGwi8xwzdrU5G-15">
          <mxGeometry relative="1" as="geometry">
            <mxPoint x="1220" y="150" as="sourcePoint" />
          </mxGeometry>
        </mxCell>
        <mxCell id="buYJWm52dYUx8iEdCHAn-40" style="edgeStyle=orthogonalEdgeStyle;rounded=0;orthogonalLoop=1;jettySize=auto;html=1;entryX=0.68;entryY=1.234;entryDx=0;entryDy=0;entryPerimeter=0;" edge="1" parent="1" source="BI4W_taBGwi8xwzdrU5G-19" target="BI4W_taBGwi8xwzdrU5G-66">
          <mxGeometry relative="1" as="geometry">
            <Array as="points">
              <mxPoint x="1088" y="250" />
            </Array>
          </mxGeometry>
        </mxCell>
        <mxCell id="jVKLtPgzEHOXS91-g60B-9" value="" style="endArrow=none;html=1;rounded=0;" edge="1" parent="1">
          <mxGeometry width="50" height="50" relative="1" as="geometry">
            <mxPoint x="1090" y="100" as="sourcePoint" />
            <mxPoint x="1090" y="230" as="targetPoint" />
            <Array as="points">
              <mxPoint x="980" y="100" />
              <mxPoint x="980" y="180" />
              <mxPoint x="980" y="220" />
              <mxPoint x="1040" y="220" />
              <mxPoint x="1090" y="220" />
            </Array>
          </mxGeometry>
        </mxCell>
        <mxCell id="jVKLtPgzEHOXS91-g60B-10" value="" style="endArrow=none;html=1;rounded=0;exitX=0.535;exitY=-0.684;exitDx=0;exitDy=0;exitPerimeter=0;" edge="1" parent="1" source="BI4W_taBGwi8xwzdrU5G-22">
          <mxGeometry width="50" height="50" relative="1" as="geometry">
            <mxPoint x="1100" y="300" as="sourcePoint" />
            <mxPoint x="980" y="210" as="targetPoint" />
            <Array as="points">
              <mxPoint x="1103" y="290" />
              <mxPoint x="980" y="290" />
            </Array>
          </mxGeometry>
        </mxCell>
        <mxCell id="jVKLtPgzEHOXS91-g60B-12" style="edgeStyle=orthogonalEdgeStyle;rounded=0;orthogonalLoop=1;jettySize=auto;html=1;entryX=0.213;entryY=0.038;entryDx=0;entryDy=0;entryPerimeter=0;" edge="1" parent="1" target="buYJWm52dYUx8iEdCHAn-3">
          <mxGeometry relative="1" as="geometry">
            <mxPoint x="1320" y="560" as="sourcePoint" />
            <Array as="points">
              <mxPoint x="1320" y="560" />
              <mxPoint x="1320" y="580" />
              <mxPoint x="1081" y="580" />
            </Array>
          </mxGeometry>
        </mxCell>
        <mxCell id="jVKLtPgzEHOXS91-g60B-20" style="edgeStyle=orthogonalEdgeStyle;rounded=0;orthogonalLoop=1;jettySize=auto;html=1;" edge="1" parent="1">
          <mxGeometry relative="1" as="geometry">
            <mxPoint x="1393" y="570" as="sourcePoint" />
            <mxPoint x="1080" y="630" as="targetPoint" />
            <Array as="points">
              <mxPoint x="1393" y="610" />
              <mxPoint x="1080" y="610" />
            </Array>
          </mxGeometry>
        </mxCell>
        <mxCell id="jVKLtPgzEHOXS91-g60B-22" value="" style="endArrow=none;html=1;rounded=0;" edge="1" parent="1">
          <mxGeometry width="50" height="50" relative="1" as="geometry">
            <mxPoint x="1150" y="210" as="sourcePoint" />
            <mxPoint x="1160" y="160" as="targetPoint" />
            <Array as="points">
              <mxPoint x="990" y="210" />
              <mxPoint x="990" y="180" />
              <mxPoint x="1160" y="180" />
            </Array>
          </mxGeometry>
        </mxCell>
        <mxCell id="jVKLtPgzEHOXS91-g60B-23" value="" style="shape=link;html=1;rounded=0;width=2.413793103448276;exitX=0.348;exitY=0.933;exitDx=0;exitDy=0;exitPerimeter=0;" edge="1" parent="1">
          <mxGeometry relative="1" as="geometry">
            <mxPoint x="1370" y="560" as="sourcePoint" />
            <mxPoint x="1410" y="560" as="targetPoint" />
          </mxGeometry>
        </mxCell>
        <mxCell id="jVKLtPgzEHOXS91-g60B-24" value="" style="resizable=0;html=1;whiteSpace=wrap;align=right;verticalAlign=bottom;" connectable="0" vertex="1" parent="jVKLtPgzEHOXS91-g60B-23">
          <mxGeometry x="1" relative="1" as="geometry" />
        </mxCell>
        <mxCell id="jVKLtPgzEHOXS91-g60B-25" value="" style="endArrow=none;html=1;rounded=0;entryX=0.976;entryY=1.004;entryDx=0;entryDy=0;entryPerimeter=0;" edge="1" parent="1" target="buYJWm52dYUx8iEdCHAn-5">
          <mxGeometry width="50" height="50" relative="1" as="geometry">
            <mxPoint x="1370" y="560" as="sourcePoint" />
            <mxPoint x="1400" y="560" as="targetPoint" />
            <Array as="points">
              <mxPoint x="1390" y="560" />
            </Array>
          </mxGeometry>
        </mxCell>
        <mxCell id="V7z9XOdo23ySqaUnLOSC-1" value="" style="endArrow=none;html=1;rounded=0;exitX=0.735;exitY=1;exitDx=0;exitDy=0;exitPerimeter=0;" edge="1" parent="1" source="BI4W_taBGwi8xwzdrU5G-19">
          <mxGeometry relative="1" as="geometry">
            <mxPoint x="1010" y="370" as="sourcePoint" />
            <mxPoint x="1270" y="300" as="targetPoint" />
            <Array as="points">
              <mxPoint x="1140" y="300" />
            </Array>
          </mxGeometry>
        </mxCell>
      </root>
    </mxGraphModel>
  </diagram>
</mxfile>
